#!OML:ASF E:\CV Data\Top Level 1\Subject 1\Session 1\player.ASF
:FULLY-SPECIFIED
:DEGREES
679
root 2.73248 16.85 5.37192 24.1165 9.3131 -1.5591
lowerback 22.3984 6.45642 4.26487
upperback 2.46379 9.73274 2.83003
thorax -9.49335 4.46964 -2.16983
lowerneck -6.54775 -14.4468 -16.8319
upperneck -12.3519 -17.4021 23.4828
head 1.26139 -8.60387 8.88594
rclavicle 5.56597e-014 -2.06736e-014
rhumerus 6.9451 -1.81035 -78.2575
rradius 17.7238
rwrist -8.41796
rhand -22.1939 1.36843
rfingers 7.12502
rthumb 4.22157 -28.5695
lclavicle 5.56597e-014 -2.06736e-014
lhumerus -34.7625 -3.43656 83.6759
lradius 49.1488
lwrist 3.54604
lhand -15.109 8.73401
lfingers 7.12502
lthumb 11.0596 38.4226
rfemur -10.6688 -11.1762 24.4219
rtibia 47.3977
rfoot -3.88639 -4.0171
rtoes -4.81197
lfemur -57.7913 -3.46498 -24.3073
ltibia 29.2706
lfoot 7.28656 -21.8186
ltoes 10.7678
680
root 2.72697 16.8531 5.35939 23.7568 9.19468 -1.74773
lowerback 22.2728 6.44552 4.11294
upperback 2.43866 9.67767 2.81725
thorax -9.47964 4.45155 -2.07358
lowerneck -6.56479 -14.5312 -16.9131
upperneck -12.216 -17.5265 23.7822
head 1.37348 -8.6634 8.96237
rclavicle 2.54444e-014 -3.97569e-014
rhumerus 5.07144 -5.02048 -79.0745
rradius 16.4097
rwrist -5.13288
rhand -22.3501 1.35617
rfingers 7.12502
rthumb 4.07066 -28.5847
lclavicle 2.54444e-014 -3.97569e-014
lhumerus -34.565 -3.18321 83.8301
lradius 49.8363
lwrist 4.70357
lhand -16.3536 8.44733
lfingers 7.12502
lthumb 9.85906 38.1965
rfemur -10.8542 -11.272 24.3661
rtibia 47.6825
rfoot -4.58409 -4.34459
rtoes -4.6552
lfemur -57.5015 -3.44057 -23.9825
ltibia 29.335
lfoot 7.22763 -21.5693
ltoes 10.5995
681
root 2.72153 16.8554 5.34471 23.3914 9.06083 -1.94414
lowerback 22.1432 6.43528 3.96473
upperback 2.41105 9.62516 2.80891
thorax -9.46633 4.43457 -1.97503
lowerneck -6.57477 -14.6141 -16.99
upperneck -12.0793 -17.6513 24.0864
head 1.48569 -8.72346 9.03993
rclavicle 1.74931e-014 -7.4743e-014
rhumerus 3.29129 -8.82941 -79.7012
rradius 15.031
rwrist -1.386
rhand -22.485 1.27916
rfingers 7.12502
rthumb 3.94045 -28.6641
lclavicle 1.74931e-014 -7.4743e-014
lhumerus -34.3802 -2.9211 83.9733
lradius 50.4912
lwrist 5.74624
lhand -17.4164 8.03489
lfingers 7.12502
lthumb 8.83358 37.83
rfemur -11.0217 -11.3321 24.3285
rtibia 47.9232
rfoot -5.27409 -4.60986
rtoes -4.52106
lfemur -57.2155 -3.40231 -23.6564
ltibia 29.4061
lfoot 7.16404 -21.3273
ltoes 10.4256
682
root 2.71606 16.857 5.32777 23.0246 8.91066 -2.14336
lowerback 22.0062 6.4234 3.81424
upperback 2.37968 9.57066 2.80431
thorax -9.45402 4.4168 -1.87011
lowerneck -6.58043 -14.6918 -17.0628
upperneck -11.9371 -17.7719 24.3904
head 1.59826 -8.78136 9.11759
rclavicle 6.52014e-014 -3.49861e-014
rhumerus 1.58965 -13.3263 -80.0962
rradius 13.629
rwrist 2.77997
rhand -22.6066 1.16117
rfingers 7.12502
rthumb 3.823 -28.7843
lclavicle 6.52014e-014 -3.49861e-014
lhumerus -34.2109 -2.64815 84.1016
lradius 51.102
lwrist 6.64482
lhand -18.2699 7.51469
lfingers 7.12502
lthumb 8.00983 37.3429
rfemur -11.1761 -11.3587 24.3042
rtibia 48.1226
rfoot -5.98398 -4.79117
rtoes -4.4834
lfemur -56.9364 -3.34487 -23.34
ltibia 29.4821
lfoot 7.09379 -21.1025
ltoes 10.207
683
root 2.7105 16.8576 5.30875 22.6579 8.73624 -2.34417
lowerback 21.8591 6.4124 3.65543
upperback 2.34367 9.51584 2.80193
thorax -9.4429 4.39923 -1.75745
lowerneck -6.58078 -14.763 -17.1305
upperneck -11.7861 -17.8873 24.6928
head 1.71143 -8.83649 9.19496
rclavicle 8.5875e-014 -1.43125e-014
rhumerus -0.0780899 -18.6192 -80.2014
rradius 12.2505
rwrist 7.44219
rhand -22.7221 0.997852
rfingers 7.12502
rthumb 3.71143 -28.9496
lclavicle 8.5875e-014 -1.43125e-014
lhumerus -34.0595 -2.37973 84.2161
lradius 51.664
lwrist 7.38996
lhand -18.9298 6.95269
lfingers 7.12502
lthumb 7.3729 36.8042
rfemur -11.319 -11.3513 24.2875
rtibia 48.285
rfoot -6.72972 -4.86148
rtoes -4.56599
lfemur -56.665 -3.26037 -23.0378
ltibia 29.5609
lfoot 7.02279 -20.8931
ltoes 9.95031
684
root 2.70479 16.8574 5.28774 22.2873 8.53698 -2.54228
lowerback 21.708 6.40266 3.48918
upperback 2.30657 9.46126 2.80012
thorax -9.43169 4.38209 -1.63992
lowerneck -6.58773 -14.8327 -17.1894
upperneck -11.6263 -18.003 24.9873
head 1.82689 -8.89089 9.26778
rclavicle 1.11319e-013 2.38542e-014
rhumerus -1.77966 -24.8659 -79.9267
rradius 10.9345
rwrist 12.8326
rhand -22.8462 0.797911
rfingers 7.12502
rthumb 3.59163 -29.1516
lclavicle 1.11319e-013 2.38542e-014
lhumerus -33.9186 -2.13223 84.3169
lradius 52.1655
lwrist 7.96783
lhand -19.4062 6.41546
lfingers 7.12502
lthumb 6.91306 36.2826
rfemur -11.4459 -11.3119 24.2739
rtibia 48.4141
rfoot -7.50966 -4.81112
rtoes -4.76887
lfemur -56.395 -3.1496 -22.7532
ltibia 29.6407
lfoot 6.95674 -20.6954
ltoes 9.66587
685
root 2.69887 16.8564 5.26451 21.9204 8.32064 -2.7344
lowerback 21.5442 6.38928 3.31618
upperback 2.26609 9.40053 2.79839
thorax -9.41831 4.36249 -1.51577
lowerneck -6.59679 -14.8982 -17.2433
upperneck -11.4569 -18.1158 25.278
head 1.94444 -8.94317 9.33882
rclavicle -1.74931e-014 -1.90833e-014
rhumerus -3.46253 -26.7174 -79.5147
rradius 9.69072
rwrist 13.8279
rhand -23.6309 -0.117148
rfingers 7.12502
rthumb 2.83385 -30.0781
lclavicle -1.74931e-014 -1.90833e-014
lhumerus -33.7922 -1.91523 84.4023
lradius 52.6007
lwrist 8.3888
lhand -19.743 5.94668
lfingers 7.12502
lthumb 6.58792 35.8242
rfemur -11.5663 -11.2569 24.2656
rtibia 48.5127
rfoot -8.31354 -4.63999
rtoes -5.11672
lfemur -56.1354 -3.02159 -22.4852
ltibia 29.7202
lfoot 6.90481 -20.5079
ltoes 9.38118
